Coordinates
version=1
nRows=12
nColumns=34
inDegrees=yes

Units are S.I. units (second, meters, Newtons, ...)
If the header above contains a line with 'inDegrees', this indicates whether rotational values are in degrees (yes) or radians (no).

endheader
time	pelvis_tilt	pelvis_list	pelvis_rotation	pelvis_tx	pelvis_ty	pelvis_tz	hip_flexion_r	hip_adduction_r	hip_rotation_r	knee_angle_r	ankle_angle_r	subtalar_angle_r	mtp_angle_r	hip_flexion_l	hip_adduction_l	hip_rotation_l	knee_angle_l	ankle_angle_l	subtalar_angle_l	mtp_angle_l	lumbar_extension	lumbar_bending	lumbar_rotation	arm_flex_r	arm_add_r	arm_rot_r	elbow_flex_r	pro_sup_r	arm_flex_l	arm_add_l	arm_rot_l	elbow_flex_l	pro_sup_l
      0.00000000	     -5.39277517	     -1.73702537	    -29.10332659	      1.02406393	      0.99898437	      0.21551666	     12.51232920	      0.65347565	     -0.83956792	     13.97221812	      8.64987093	     -6.11119039	      0.00000000	      9.46034724	      2.74395245	      6.01482464	      5.39913924	      6.20658840	    -11.35249091	      0.00000000	     -8.22279318	      4.62057475	      6.96221387	     12.29254798	    -13.09123595	     -3.82507135	     25.35687261	    119.74817918	     18.65177736	    -26.20076089	      8.09496277	     53.20093081	    118.10061825
      0.01666670	     -5.39359340	     -1.74273574	    -29.10357388	      1.02394688	      0.99876493	      0.21575454	     12.51152266	      0.65197067	     -0.83920299	     13.97193336	      8.64981973	     -6.11094901	      0.00000000	      9.46072358	      2.74910462	      6.01452895	      5.39863411	      6.20566652	    -11.35145547	      0.00000000	     -8.22337395	      4.62211636	      6.96321249	     12.29366090	    -13.09200259	     -3.82552390	     25.35728937	    119.74817918	     18.65208322	    -26.20087807	      8.09567355	     53.20061817	    118.10064083
      0.03333330	     -4.55504423	     -1.98365728	    -29.61632258	      1.02409983	      1.00029566	      0.21660364	     11.45045515	      0.63130198	     -0.07445667	     13.77436046	      8.76045038	     -5.80795341	      0.00000000	      8.25685515	      2.81490317	      5.08415035	      4.99319072	      6.14073205	    -10.66121700	      0.00000000	     -9.25270779	      4.35275183	      7.79169433	     12.41507493	    -13.13392670	     -4.64889580	     25.32850733	    119.74817918	     19.40713518	    -26.27850203	      9.17385049	     52.72912020	    118.08218919
      0.05000000	     -4.53527960	     -1.97108861	    -29.56057822	      1.02432042	      0.99994036	      0.21701490	     11.42499639	      0.65539386	     -0.04713725	     13.82292849	      8.74206545	     -5.79288710	      0.00000000	      8.23966491	      2.83405234	      5.09777806	      5.01017112	      6.14358277	    -10.64582600	      0.00000000	     -9.21420254	      4.36652051	      7.83579526	     12.44725670	    -13.15274358	     -4.65710407	     25.33571036	    119.74817918	     19.40409227	    -26.26573678	      9.17492630	     52.73590408	    118.08070552
      0.06666670	     -4.35705761	     -2.04551442	    -29.55675455	      1.02413648	      0.99998258	      0.21667584	     11.42847689	      0.69456099	      0.36358766	     14.20393844	      8.57184753	     -5.76578789	      0.00000000	      8.12740986	      2.86439786	      5.36735333	      5.18531545	      6.39659574	    -10.42307165	      0.00000000	     -9.46673051	      4.43370607	      8.08541210	     12.62598327	    -13.33307471	     -4.84417379	     25.09186334	    119.74817918	     19.56438638	    -25.87902336	      9.19383414	     52.86083436	    118.03470828
      0.08333330	     -4.15310474	     -2.02778733	    -29.57763185	      1.02380320	      0.99998230	      0.21678709	     11.31231820	      0.66499996	      0.77059891	     14.27520298	      8.27776246	     -5.78785202	      0.00000000	      8.06154963	      2.96780027	      5.30731763	      5.39024460	      6.50920661	    -10.32788783	      0.00000000	     -9.66184212	      4.37632612	      8.25824621	     12.97446993	    -13.36583262	     -5.05616859	     24.74846149	    119.74817918	     19.64340992	    -25.64645192	      9.26062303	     52.86393771	    117.97530435
      0.10000000	     -4.06625353	     -1.97873184	    -29.47266574	      1.02410363	      0.99980516	      0.21673169	     11.23549788	      0.61253155	      1.00563655	     14.27365761	      8.13313790	     -5.67948527	      0.00000000	      8.02893704	      3.07775221	      5.30437891	      5.44692909	      6.56814022	    -10.31006761	      0.00000000	     -9.64433457	      4.40126021	      8.27596800	     13.10855422	    -13.44776445	     -5.11950199	     24.63729384	    119.74817918	     19.48670513	    -25.36326175	      9.44149666	     52.92949388	    117.97488599
      0.11666670	     -3.92346412	     -1.95581306	    -29.40513274	      1.02456491	      0.99975127	      0.21693749	     11.11279831	      0.54829982	      1.27971944	     14.32349669	      7.80758752	     -5.42800095	      0.00000000	      7.95038597	      3.19133052	      5.37416199	      5.61812860	      6.69716861	    -10.30319088	      0.00000000	     -9.62054664	      4.37466366	      8.32797581	     13.28522747	    -13.48451146	     -5.18592390	     24.45402994	    119.74817918	     19.27999267	    -25.07492681	      9.69903821	     53.01902850	    117.97983605
      0.13333330	     -3.80525404	     -2.01807256	    -29.37380893	      1.02496246	      0.99980110	      0.21711025	     10.96465188	      0.58290898	      1.49036685	     14.37899019	      7.87653438	     -5.37547538	      0.00000000	      7.86260486	      3.20546254	      5.41807091	      5.81720969	      6.83994021	    -10.32760219	      0.00000000	     -9.67281420	      4.46826009	      8.41196133	     13.60242180	    -13.56037717	     -5.25005463	     24.24387549	    119.74817918	     19.01790887	    -24.72695886	     10.05325813	     53.07935117	    117.98964508
      0.15000000	     -3.66552883	     -2.10832786	    -29.33553497	      1.02534168	      0.99991302	      0.21752216	     10.82420053	      0.63769619	      1.66826703	     14.50954361	      7.99521015	     -5.36414742	      0.00000000	      7.76625212	      3.18998262	      5.46993852	      6.05008661	      6.93653731	    -10.34226454	      0.00000000	     -9.73572874	      4.56111145	      8.44979007	     13.95351450	    -13.61996298	     -5.27264600	     24.08091696	    119.74817918	     18.70210413	    -24.38858891	     10.46388642	     53.04218163	    118.00409261
      0.16666670	     -3.45403355	     -2.31298998	    -29.22362926	      1.02535886	      1.00008558	      0.21813695	     10.51089181	      0.79922494	      1.95001729	     14.61232142	      8.30607296	     -5.38472046	      0.00000000	      7.59741761	      3.08514279	      5.51518477	      6.38579028	      7.29450761	    -10.45835956	      0.00000000	     -9.94080989	      4.68681421	      8.46614056	     14.47954234	    -13.59909963	     -5.14872813	     23.57430906	    119.74817918	     18.49035964	    -24.14237112	     11.31002751	     52.83979326	    118.01346007
      0.18333330	     -3.31654631	     -2.31685596	    -29.23083824	      1.02561806	      1.00020447	      0.21881452	     10.42380890	      0.77335487	      1.95001485	     14.72475935	      8.31219500	     -5.42872901	      0.00000000	      7.54217922	      3.12816192	      5.62729449	      6.59530420	      7.27948991	    -10.38068319	      0.00000000	     -9.96324685	      4.67929567	      8.53970423	     14.77056838	    -13.70610484	     -5.10588712	     23.61785367	    119.74817918	     17.92516596	    -23.72576380	     11.69841169	     52.63197356	    118.02915377
